<svg xmlns="http://www.w3.org/2000/svg" version="1.1" xmlns:xlink="http://www.w3.org/1999/xlink" xmlns:svgjs="http://svgjs.dev/svgjs" width="1000" height="1000" viewBox="0 0 1000 1000"><rect width="1000" height="1000" fill="#f9f9f9"></rect><g transform="matrix(0.7,0,0,0.7,149.57575757575756,436.421028478617)"><svg viewBox="0 0 396 72" data-background-color="#f9f9f9" preserveAspectRatio="xMidYMid meet" height="181" width="1000" xmlns="http://www.w3.org/2000/svg" xmlns:xlink="http://www.w3.org/1999/xlink"><g id="tight-bounds" transform="matrix(1,0,0,1,0.2400000000000091,0.1301196993713063)"><svg viewBox="0 0 395.52 71.73976230899831" height="71.73976230899831" width="395.52"><g><svg viewBox="0 0 395.52 71.73976230899831" height="71.73976230899831" width="395.52"><g><svg viewBox="0 0 395.52 71.73976230899831" height="71.73976230899831" width="395.52"><g><svg viewBox="0 0 395.52 71.73976230899831" height="71.73976230899831" width="395.52"><g><svg viewBox="0 0 395.52 71.73976230899831" height="71.73976230899831" width="395.52"><g><svg viewBox="0 0 395.52 71.73976230899831" height="71.73976230899831" width="395.52"><g><svg viewBox="0 0 395.52 71.73976230899831" height="71.73976230899831" width="395.52"><g transform="matrix(1,0,0,1,0,0)"><svg width="395.52" viewBox="3 -32.04999923706055 176.69000244140625 32.04999923706055" height="71.73976230899831" data-palette-color="#030303"><path d="M26.2 0L9.6 0Q6.2 0 4.6-0.3 3-0.6 3-1L3-1 5-5.35Q6.15-5.15 10.73-4.98 15.3-4.8 23.3-4.8L23.3-4.8 24.25-4.8Q26.4-4.8 27.3-5.58 28.2-6.35 28.2-8.2L28.2-8.2 28.2-9.2Q28.2-10.95 27.48-11.7 26.75-12.45 24.25-12.45L24.25-12.45 12.65-12.45Q7.6-12.45 5.3-14.33 3-16.2 3-20.45L3-20.45 3-21.25Q3-23.45 3.83-25.3 4.65-27.15 6.65-28.28 8.65-29.4 12.15-29.4L12.15-29.4 25.75-29.4Q29.15-29.4 31.25-29.05 33.35-28.7 33.35-28.3L33.35-28.3 32.35-24.1Q31.05-24.25 26.45-24.43 21.85-24.6 14.1-24.6L14.1-24.6 13.55-24.65Q11.25-24.65 10.45-23.73 9.65-22.8 9.6-21.4L9.6-21.4 9.6-20.55Q9.6-18.9 10.53-18.07 11.45-17.25 13.6-17.25L13.6-17.25 24.7-17.25Q27.9-17.25 30.15-16.6 32.4-15.95 33.6-14.23 34.8-12.5 34.8-9.15L34.8-9.15 34.8-8.35Q34.8-4.6 32.88-2.3 30.95 0 26.2 0L26.2 0ZM44.35-25.55L44.35-25.55Q42.5-25.55 41.65-26.3 40.8-27.05 40.8-28.8L40.8-28.8Q40.8-30.6 41.62-31.33 42.45-32.05 44.35-32.05L44.35-32.05Q46.25-32.05 47.1-31.33 47.95-30.6 47.95-28.8L47.95-28.8Q47.95-27.1 47.1-26.33 46.25-25.55 44.35-25.55ZM47.4 0L41.3 0 41.3-22.4 47.4-22.4 47.4 0ZM73.75 0L59.6 0Q56.25 0 54.85-0.35 53.45-0.7 53.45-1.05L53.45-1.05 54.95-4.8Q56.4-4.65 60.27-4.48 64.15-4.3 69.85-4.3L69.85-4.3 72.35-4.3Q73.6-4.3 73.92-4.98 74.25-5.65 74.25-6.8L74.25-6.8Q74.25-7.95 73.87-8.65 73.5-9.35 72.35-9.35L72.35-9.35 60.05-9.35Q56.55-9.35 55-10.68 53.45-12 53.45-14.65L53.45-14.65 53.45-16.65Q53.45-17.35 53.6-18.3 53.75-19.25 54.35-20.2 54.95-21.15 56.3-21.78 57.65-22.4 60.05-22.4L60.05-22.4 73.85-22.4Q76.85-22.4 78.1-22.05 79.35-21.7 79.35-21.35L79.35-21.35 78.85-17.6Q77.4-17.75 73.5-17.93 69.6-18.1 63.95-18.1L63.95-18.1 61.45-18.1Q60.2-18.1 59.87-17.43 59.55-16.75 59.55-15.85L59.55-15.85Q59.55-14.9 59.87-14.28 60.2-13.65 61.45-13.65L61.45-13.65 73.75-13.65Q77.15-13.65 78.75-12.25 80.35-10.85 80.35-8.7L80.35-8.7 80.35-5.75Q80.35-4.85 80.22-3.85 80.1-2.85 79.5-1.98 78.9-1.1 77.55-0.55 76.2 0 73.75 0L73.75 0ZM110.64 0L86.84 0 87.34-4 87.34-29.4 93.94-29.4 93.94-4.8 114.64-4.8 116.64-0.55Q116.64-0.35 115.29-0.18 113.94 0 110.64 0L110.64 0ZM129.09 0L126.59 0Q122.79 0 121.09-1.78 119.39-3.55 119.39-6.65L119.39-6.65Q119.39-9.9 121.17-11.65 122.94-13.4 126.59-13.4L126.59-13.4 129.14-13.4Q132.89-13.4 135.89-13.2 138.89-13 140.84-12.8L140.84-12.8 140.84-16.1Q140.84-16.55 140.74-17.03 140.64-17.5 140.14-17.8 139.64-18.1 138.44-18.1L138.44-18.1 135.94-18.1Q130.49-18.1 126.84-17.93 123.19-17.75 121.89-17.6L121.89-17.6 121.34-21.4Q121.34-22.1 125.14-22.25 128.94-22.4 137.84-22.4L137.84-22.4 140.34-22.4Q142.84-22.4 144.19-21.7 145.54-21 146.12-19.95 146.69-18.9 146.82-17.82 146.94-16.75 146.94-16L146.94-16 146.94 0 142.84 0 140.89-1Q138.79-0.65 135.84-0.33 132.89 0 129.09 0L129.09 0ZM127.89-4.3L127.89-4.3 139.34-4.3Q140.44-4.3 140.64-4.5 140.84-4.7 140.84-5.75L140.84-5.75 140.84-9.6 127.89-9.6Q126.54-9.6 126.02-8.95 125.49-8.3 125.49-6.9L125.49-6.9Q125.49-5.5 126.09-4.9 126.69-4.3 127.89-4.3ZM156.79 0L152.69 0 152.69-31.7 158.79-31.7 158.79-21.8Q160.94-22.05 163.86-22.23 166.79-22.4 170.54-22.4L170.54-22.4 173.09-22.4Q175.59-22.4 176.94-21.75 178.29-21.1 178.86-20.1 179.44-19.1 179.56-18 179.69-16.9 179.69-16L179.69-16 179.69-6.4Q179.69-5.65 179.56-4.58 179.44-3.5 178.86-2.45 178.29-1.4 176.94-0.7 175.59 0 173.09 0L173.09 0 170.54 0Q166.39 0 163.29-0.23 160.19-0.45 158.14-0.7L158.14-0.7 156.79 0ZM160.34-4.3L160.34-4.3 171.19-4.3Q173.59-4.3 173.59-6.3L173.59-6.3 173.59-16.1Q173.64-17.2 173.14-17.65 172.64-18.1 171.19-18.1L171.19-18.1 168.69-18.1Q165.49-18.1 163.01-17.98 160.54-17.85 158.79-17.7L158.79-17.7 158.79-5.85Q158.79-4.8 159.01-4.55 159.24-4.3 160.34-4.3Z" opacity="1" transform="matrix(1,0,0,1,0,0)" fill="#030303" class="undefined-text-0" data-fill-palette-color="primary" id="text-0"></path></svg></g></svg></g></svg></g></svg></g></svg></g></svg></g></svg></g><defs></defs></svg><rect width="395.52" height="71.73976230899831" fill="none" stroke="none" visibility="hidden"></rect></g></svg></g></svg>